PathFileType	4	(X/Y/Z)	D:\Research_projects\MuscleProsody\BulkSports2Dtrack\RetrackedSports2D\p1_sample60_cam2\p1_sample60_cam2_Sports2D\p1_sample60_cam2_Sports2D_px_person00.trc
DataRate	CameraRate	NumFrames	NumMarkers	Units	OrigDataRate	OrigDataStartFrame	OrigNumFrames
60	60	13	22	m	60	682	780
Frame#	Time	Hip			RHip			RKnee			RAnkle			RBigToe			RSmallToe			RHeel			LHip			LKnee			LAnkle			LBigToe			LSmallToe			LHeel			Neck			Head			Nose			RShoulder			RElbow			RWrist			LShoulder			LElbow			LWrist		
		X1	Y1	Z1	X2	Y2	Z2	X3	Y3	Z3	X4	Y4	Z4	X5	Y5	Z5	X6	Y6	Z6	X7	Y7	Z7	X8	Y8	Z8	X9	Y9	Z9	X10	Y10	Z10	X11	Y11	Z11	X12	Y12	Z12	X13	Y13	Z13	X14	Y14	Z14	X15	Y15	Z15	X16	Y16	Z16	X17	Y17	Z17	X18	Y18	Z18	X19	Y19	Z19	X20	Y20	Z20	X21	Y21	Z21	X22	Y22	Z22
682	11.366666666666667	248.07404580932453	514.4234725616778	0.0	220.75437263620375	513.8112866695931	0.0	219.21902601289582	630.991333600392	0.0	220.55486249471767	730.649759141707	0.0	218.8166275314992	767.297609069602	0.0	205.30589010891006	760.9639122683644	0.0	225.3639770084629	737.0421700994988	0.0	275.32341451463	516.2024790282775	0.0	269.3725848699993	631.5480389679702	0.0	269.44341434415037	732.1994164196548	0.0	266.1074503519937	767.8953169079834	0.0	282.12817266878915	763.2692297606241	0.0	266.7849124493807	736.989946039058	0.0	249.59465878375835	327.3686778590301	0.0	240.36795744585447	244.43368544276575	0.0	232.21874491963757	295.6514324898677	0.0	200.25920181610257	361.61826508761357	0.0	161.55698628943986	420.2188993575024	0.0	138.7872316078663	439.5816881348959	0.0	306.50054978454574	358.46842946554654	0.0	320.9699872145703	439.93679959227086	0.0	300.1443330168314	498.5737478740597	0.0
683	11.383333333333333	247.73746968604246	514.6361928977531	0.0	220.35966482340663	513.7892239643974	0.0	219.1601903456676	630.538782804736	0.0	220.67802213726893	730.7901835962288	0.0	218.82129148197834	767.3231921100911	0.0	205.25639843923497	760.8416481506966	0.0	225.44972078852592	737.0782218471707	0.0	275.19957856328625	516.1407685209788	0.0	269.23787601104743	631.1473191078267	0.0	269.3517700671344	732.2838931209956	0.0	265.96185002259034	767.8760606358769	0.0	281.943966921518	763.247745573373	0.0	266.6735717295147	736.9056322538012	0.0	249.68323567802744	327.0582306596405	0.0	240.65277137617454	244.37857545007418	0.0	232.3635981180922	295.3919065544702	0.0	200.39260048007944	361.64244778509556	0.0	163.12267074126567	421.41509009645546	0.0	146.4016412770082	442.0795955265623	0.0	306.54688436809687	358.710785412935	0.0	320.4724456045483	440.3643585825442	0.0	299.39054771150006	498.7241260020886	0.0
684	11.4	247.403695701617	514.8470666427505	0.0	219.98210484950235	513.7298046109635	0.0	219.07752471321356	630.0746748099757	0.0	220.78128769862664	730.8672838591825	0.0	218.85783300313128	767.369749685941	0.0	205.17114003548647	760.7384222151925	0.0	225.49605780374029	737.1134435010107	0.0	275.0780410642666	516.0464373714735	0.0	269.09343549911006	630.7399182311877	0.0	269.24725079227113	732.2837346950919	0.0	265.7923839414134	767.8958974383793	0.0	281.75356661501235	763.2378022197329	0.0	266.5128145052791	736.7792450671324	0.0	249.7591196241406	326.7267361428076	0.0	240.9321811422272	244.3068345145535	0.0	232.46988769447526	295.1751533516876	0.0	200.57753973702864	361.676495208354	0.0	164.63242844993405	423.0147540268523	0.0	153.67710983523196	445.44506779338957	0.0	306.5646082424468	358.93035396958885	0.0	319.96598103389334	440.8074221659321	0.0	298.6769236239079	498.92612102071564	0.0
685	11.416666666666666	247.09273241380816	515.0429725909063	0.0	219.6423008418888	513.619449122616	0.0	218.96765920124903	629.6051556818875	0.0	220.86269512081847	730.8792971922045	0.0	218.92903834175968	767.4386659495456	0.0	205.053649506783	760.6638589949134	0.0	225.51467843160265	737.1479758616819	0.0	274.94993895156193	515.9070532576073	0.0	268.9369376830329	630.3264454159986	0.0	269.13429509393455	732.1973458621309	0.0	265.6029818883818	767.9615154464425	0.0	281.57076153241997	763.244663450848	0.0	266.3158944060865	736.6203363024352	0.0	249.82754958730547	326.3913264933175	0.0	241.18954115598132	244.22628694529558	0.0	232.53455831934892	295.00675771206045	0.0	200.81095959916732	361.71818128085073	0.0	166.13815138416237	424.98148416083467	0.0	160.6133043759372	449.66823298691804	0.0	306.55096454652045	359.11515318252435	0.0	319.4688748804199	441.25311958893695	0.0	298.02505721913155	499.20531297104344	0.0
686	11.433333333333334	246.82392356729207	515.2120258111343	0.0	219.35868139525797	513.4525689845756	0.0	218.8311301065951	629.1383146982672	0.0	220.92575865297022	730.8363664608654	0.0	219.0368002934604	767.5304037106388	0.0	204.91430564250462	760.6265056278032	0.0	225.5254362721573	737.1815265910452	0.0	274.80747388929547	515.7148899942958	0.0	268.7678722278255	629.9087911238757	0.0	269.0202638179997	732.0316157140269	0.0	265.40253371156683	768.0772683331968	0.0	281.4039724246597	763.274180209988	0.0	266.1038860840364	736.438889219536	0.0	249.89293430220104	326.0711900324516	0.0	241.41739238001713	244.14210389651277	0.0	232.55676609237474	294.89341964310813	0.0	201.07966209156413	361.7664740848461	0.0	167.69733809587564	427.235198449591	0.0	167.21316438816015	454.6652139443304	0.0	306.5083340298702	359.2582001197275	0.0	318.9984662261763	441.68889590783465	0.0	297.4577175833695	499.5905278538403	0.0
687	11.45	246.61422113498642	515.3447885349456	0.0	219.1461462789224	513.2342613253549	0.0	218.67148193489155	628.6845834243722	0.0	220.9795592704367	730.7525204323035	0.0	219.17871470862957	767.6437863744075	0.0	204.76794407620778	760.6301904845656	0.0	225.55393232011957	737.2114844864006	0.0	274.64642734544566	515.4703968798741	0.0	268.58822247095077	629.4920092802985	0.0	268.9136360237173	731.7996001580258	0.0	265.20269253479086	768.2426910054988	0.0	281.25752888931123	763.3301608068515	0.0	265.90039108401805	736.2450980188758	0.0	249.9567615439279	325.78256310581133	0.0	241.61432669052044	244.0573554647672	0.0	232.53674523393556	294.8377034306042	0.0	201.36335054782933	361.8188758137914	0.0	169.3551606283675	429.66360736739557	0.0	173.45664503265857	460.2801039299788	0.0	306.4435160178655	359.35809658627625	0.0	318.5686932289803	442.1046956288415	0.0	296.99808573672124	500.10978094388327	0.0
688	11.466666666666667	246.47529132581937	515.4325607177271	0.0	219.0156121371104	512.9771100829726	0.0	218.4940583917434	628.2556806103214	0.0	221.03426268219312	730.6388834427453	0.0	219.3467793260005	767.7751260415577	0.0	204.6299182248273	760.672187327317	0.0	225.62192817942955	737.2333463988326	0.0	274.46750010697474	515.1797260770492	0.0	268.4021415680045	629.0846828486202	0.0	268.8224304519548	731.5183083449369	0.0	265.0148178362769	768.4508272450754	0.0	281.1333374540223	763.4136447332993	0.0	265.7243068542444	736.049888004478	0.0	250.0177732446581	325.53661493941786	0.0	241.78040492379566	243.9748713950136	0.0	232.47761775151235	294.83429779287434	0.0	201.6392142979141	361.86989330875673	0.0	171.13086702113912	432.1434721100831	0.0	179.29114323285873	466.3127216596151	0.0	306.3657480250449	359.41652711677557	0.0	318.18863110622	442.49542576195364	0.0	296.66882931487737	500.7867237133282	0.0
689	11.483333333333333	246.4104266749083	515.4650426701562	0.0	218.97449011650477	512.6961447328282	0.0	218.30597588474856	627.8633417881038	0.0	221.09565583249045	730.5047840881537	0.0	219.53274472852783	767.9190199281938	0.0	204.51469803932358	760.7467466624909	0.0	225.7398057480366	737.244141534957	0.0	274.2749066896444	514.8501933290385	0.0	268.21445531442924	628.6976184789787	0.0	268.75262769103597	731.2079139372323	0.0	264.84879511959184	768.6912914720652	0.0	281.03137041927135	763.5240788485738	0.0	265.58575920524834	735.8640663422369	0.0	250.07383244917287	325.3405914688385	0.0	241.91820632952877	243.896865670152	0.0	232.38749511965477	294.8741594508061	0.0	201.88558311909185	361.91256689933533	0.0	173.0128156368796	434.5626607414624	0.0	184.63794754755625	472.557973860929	0.0	306.28405333490264	359.4359440402294	0.0	317.8613766622123	442.8598220531545	0.0	296.4906714124615	501.6401210752375	0.0
690	11.5	246.41467532958725	515.4303001996848	0.0	219.0265979645392	512.4058716992477	0.0	218.11650891942287	627.5176405174349	0.0	221.16410383112765	730.360660274886	0.0	219.73177815517903	768.0692388728528	0.0	204.43508156871545	760.848409377982	0.0	225.906942889454	737.2451906471152	0.0	274.07431902919626	514.4892706047096	0.0	268.02887225805466	628.3417375493392	0.0	268.7074404980808	730.8902779364919	0.0	264.7112103050057	768.9526277863146	0.0	280.9500008814069	763.6597548922305	0.0	265.4877577461802	735.6978455393164	0.0	250.12274615851632	325.1987730599263	0.0	242.03566174296745	243.82355360015413	0.0	232.2764779586848	294.9492529425585	0.0	202.08274523005977	361.94225404829854	0.0	174.9612411922232	436.8315760924432	0.0	189.40215643406805	478.8279381956353	0.0	306.20560319448475	359.41986335316307	0.0	317.5832841303501	443.1977460610551	0.0	296.48229460397437	502.68484272802255	0.0
691	11.516666666666666	246.47768005359933	515.3180896176298	0.0	219.1701516256465	512.118755107928	0.0	217.9365330007376	627.2244626117906	0.0	221.23670128117365	730.216340145168	0.0	219.93890762418457	768.2188339426576	0.0	204.39859228683096	760.9711046124944	0.0	226.1151715083459	737.2413468862059	0.0	273.87215450175114	514.1060952608124	0.0	267.84755278064347	628.0257362710935	0.0	268.687046318276	730.5849414319416	0.0	264.6019348690195	769.2199236984649	0.0	280.8856630380375	763.8163559397219	0.0	265.4310173103449	735.5606423881981	0.0	250.16127995912169	325.1110686997663	0.0	242.14359614224784	243.75407617110488	0.0	232.1515900931934	295.052023148829	0.0	202.21363195187632	361.95874758782685	0.0	176.91626512246856	438.88625601411803	0.0	193.4885084770689	484.9603101860199	0.0	306.13451935225004	359.3744514741694	0.0	317.3444030897294	443.5113281261432	0.0	296.6600854589457	503.9327532558502	0.0
692	11.533333333333333	246.5860703070879	515.1262679931787	0.0	219.39546195848828	511.846605592157	0.0	217.77747857552902	626.985139275792	0.0	221.3092872390633	730.0780041234614	0.0	220.14729490130063	768.3605613563545	0.0	204.4058304009837	761.1069088598608	0.0	226.35085241590104	737.2375622152231	0.0	273.67498861008585	513.7147073753773	0.0	267.67270098271996	627.7560349816937	0.0	268.68798426031765	730.3056549420021	0.0	264.51322609494105	769.473951865508	0.0	280.8320439062212	763.9863714689617	0.0	265.41576285698494	735.459051496214	0.0	250.18453874392802	325.0725456745241	0.0	242.2511789145254	243.68864873824802	0.0	232.01583182366664	295.17372082115804	0.0	202.26651708566519	361.96527976741277	0.0	178.80930414838303	440.6896873325767	0.0	196.8219243886626	490.82698083918615	0.0	306.0701364201678	359.309402929983	0.0	317.13045666856374	443.8066844861138	0.0	297.03635170580134	505.39285794205875	0.0
693	11.55	246.72433510311495	514.8677920022818	0.0	219.6852787040294	511.6054100906727	0.0	217.650144241552	626.7995499804033	0.0	221.37700875872935	729.9476167819397	0.0	220.35259903115445	768.4882438138997	0.0	204.45374329131909	761.2476542302429	0.0	226.59663623722037	737.2342846259253	0.0	273.4879982961749	513.3386878398877	0.0	267.50812002201775	627.5398511202684	0.0	268.7041141113392	730.0603613649081	0.0	264.434003910566	769.6956445811791	0.0	280.78202624425955	764.1608801313592	0.0	265.43894706638093	735.3935675718534	0.0	250.18666706915272	325.0764374222268	0.0	242.36570604767434	243.62847592141543	0.0	231.8711313270927	295.3054020635625	0.0	202.23658878328803	361.9678828426681	0.0	180.5734468244208	442.2292086967934	0.0	199.3583734043744	496.3361341341667	0.0	306.00681073874017	359.236929685348	0.0	316.9253999082808	444.09073454956774	0.0	297.6181114242989	507.06819171588523	0.0
694	11.566666666666666	246.87586123517386	514.5712158881972	0.0	220.01720454846844	511.41638040842696	0.0	217.56254736639573	626.66677987925	0.0	221.43442352741215	729.8225875448625	0.0	220.55413200330315	768.5980938261157	0.0	204.5369403872818	761.3867303984559	0.0	226.8347112491025	737.2258423627437	0.0	273.3148380996872	513.0102464044887	0.0	267.3595040978997	627.3852353440967	0.0	268.73034983686944	729.850655733541	0.0	264.35605278537486	769.8706018044487	0.0	280.73201831505924	764.3303451455602	0.0	265.4925266076408	735.3567983781714	0.0	250.1622539069581	325.1175013427641	0.0	242.49415252762714	243.57383784817756	0.0	231.72099633095445	295.43977423541236	0.0	202.12549989997487	361.975031770738	0.0	182.1500001538079	443.5086220680798	0.0	201.08519489799622	501.42440951773955	0.0	305.93645792511774	359.1689553090352	0.0	316.7133225531153	444.3676738096417	0.0	298.40732206002616	508.9493554739286	0.0
